<svg viewBox="0 0 24 24" xmlns="http://www.w3.org/2000/svg"><path d="M5.686 14.803c.41.563.868 1.134 1.371 1.716C5.195 16.939 4 17.534 4 18c0 .807 3.58 2 8 2s8-1.193 8-2c0-.466-1.195-1.062-3.057-1.481.503-.582.96-1.153 1.371-1.716C20.564 15.486 22 16.58 22 18c0 2.507-4.48 4-10 4S2 20.507 2 18c0-1.42 1.437-2.514 3.686-3.197Zm7.41 3.452L12 19.213l-1.096-.958C6.988 14.837 5 11.811 5 9c0-3.979 3.103-7 7-7s7 3.021 7 7c0 2.811-1.988 5.837-5.904 9.255ZM17 9c0-2.862-2.196-5-5-5S7 6.138 7 9c0 2.047 1.627 4.566 5 7.556 3.373-2.99 5-5.509 5-7.556Zm-5-3a3 3 0 1 1 0 6 3 3 0 0 1 0-6Zm0 2a1 1 0 1 0 0 2 1 1 0 0 0 0-2Z" fill-rule="evenodd" fill="#8656e8" class="fill-000000"></path></svg>