<svg width="132" height="127" viewBox="0 0 132 127" fill="none" xmlns="http://www.w3.org/2000/svg">
<path d="M52.9165 39.4219C57.2355 39.4374 61.4568 39.4058 65.6753 39.4833C69.0652 39.5455 72.3583 40.0833 75.3627 41.517C79.4528 43.4687 81.5978 46.5093 82.0057 50.4461C82.6411 56.577 79.1914 60.7368 73.1501 63.6128C72.9202 63.7223 72.6837 63.8215 72.4497 63.9246C70.8575 64.6257 70.8312 64.6395 71.7545 65.9084C75.6646 71.2818 79.5642 76.6627 84.2728 81.571C86.2586 83.6411 88.4775 85.459 91.5846 86.26C91.9622 86.3573 92.0983 86.5165 92.0168 86.8761C91.6188 88.6317 92.2528 88.5034 89.9276 88.3958C87.8236 88.2984 85.7218 88.1477 83.6692 87.6908C80.0356 86.8819 77.4408 84.8933 75.2592 82.3937C71.9071 78.5528 69.1464 74.3911 66.1839 70.3386C65.3473 69.1941 64.5659 68.0298 63.1389 67.2944C62.4695 66.9495 62.6072 66.4174 63.0383 65.9081C64.0881 64.6678 65.4643 63.8066 67.0602 63.1248C69.6729 62.0087 71.7673 60.3813 72.8075 58.0088C74.425 54.3196 74.3824 50.6087 72.3216 47.0459C70.7686 44.3611 67.9814 42.9899 64.6468 42.3432C63.2571 42.0737 61.8477 42.0013 60.4261 41.9979C53.9029 41.9824 47.3798 41.9411 40.8567 41.9502C40.0168 41.9514 39.812 41.746 39.8347 41.0573C39.8884 39.4229 39.8478 39.4219 41.7395 39.4219C45.4322 39.4219 49.1249 39.4219 52.9165 39.4219Z" fill="#64FFDA"/>
<path d="M109.587 89.3642L66.2838 114.365L22.698 88.8697L22.4113 38.3756L65.7142 13.3747L109.301 38.8699L109.587 89.3642ZM66.2602 110.005L105.823 87.1632L105.562 41.0283L65.7384 17.7346L26.1755 40.5762L26.4364 86.7114L66.2602 110.005Z" fill="#64FFDA"/>
<path d="M59.4703 66.2921C58.7905 68.7299 56.9016 70.1692 54.7451 69.9615C52.5519 69.7501 50.8359 67.9814 50.6787 65.7699C50.5179 63.508 51.8963 61.5588 54.0549 60.9954C57.0348 60.2177 59.8154 62.8797 59.4703 66.2921Z" fill="#64FFDA"/>
<path d="M59.4703 66.2921C58.7905 68.7299 56.9016 70.1692 54.7451 69.9615C52.5519 69.7501 50.8359 67.9814 50.6787 65.7699C50.5179 63.508 51.8963 61.5588 54.0549 60.9954C57.0348 60.2177 59.8154 62.8797 59.4703 66.2921Z" fill="#64FFDA" />
</svg>
